<svg viewBox="0 0 760 280" xmlns="http://www.w3.org/2000/svg" style="width:100%;height:auto;overflow:visible;background:#0a0a0f">
  <style>
    text { font-family: 'JetBrains Mono', 'Fira Code', monospace; }
  </style>
  <!-- Title -->
  <text x="400" y="20" fill="#00f0ff" font-size="14" text-anchor="middle" font-weight="bold">Evolution Time-Lapse: v4.0 → v6.2 (48 hours)</text>
  <!-- Axes -->
  <line x1="60" y1="30" x2="60" y2="245" stroke="#333" stroke-width="1"/>
  <line x1="60" y1="245" x2="740" y2="245" stroke="#333" stroke-width="1"/>
  <!-- Grid lines -->
  <line x1="60" y1="200" x2="740" y2="200" stroke="#1a1a2e" stroke-width="0.5" stroke-dasharray="4,4"/>
  <line x1="60" y1="155" x2="740" y2="155" stroke="#1a1a2e" stroke-width="0.5" stroke-dasharray="4,4"/>
  <line x1="60" y1="110" x2="740" y2="110" stroke="#1a1a2e" stroke-width="0.5" stroke-dasharray="4,4"/>
  <line x1="60" y1="65" x2="740" y2="65" stroke="#1a1a2e" stroke-width="0.5" stroke-dasharray="4,4"/>
  <!-- Y labels -->
  <text x="54" y="248" fill="#555" font-size="9" text-anchor="end">v4.0</text>
  <text x="54" y="203" fill="#555" font-size="9" text-anchor="end">v4.5</text>
  <text x="54" y="158" fill="#555" font-size="9" text-anchor="end">v5.0</text>
  <text x="54" y="113" fill="#555" font-size="9" text-anchor="end">v5.5</text>
  <text x="54" y="68" fill="#555" font-size="9" text-anchor="end">v6.2</text>
  <!-- X labels -->
  <text x="60" y="260" fill="#555" font-size="8" text-anchor="middle">Feb 16 20:00</text>
  <text x="230" y="260" fill="#555" font-size="8" text-anchor="middle">Feb 17 08:00</text>
  <text x="400" y="260" fill="#555" font-size="8" text-anchor="middle">Feb 17 20:00</text>
  <text x="570" y="260" fill="#555" font-size="8" text-anchor="middle">Feb 18 08:00</text>
  <text x="740" y="260" fill="#555" font-size="8" text-anchor="middle">Feb 18 20:00</text>
  <!-- Day separators -->
  <line x1="117" y1="30" x2="117" y2="245" stroke="#1a1a2e" stroke-width="0.5" stroke-dasharray="2,6"/>
  <line x1="400" y1="30" x2="400" y2="245" stroke="#1a1a2e" stroke-width="0.5" stroke-dasharray="2,6"/>
  <text x="258" y="38" fill="#1a1a2e" font-size="8" text-anchor="middle">── Feb 17 ──</text>
  <text x="570" y="38" fill="#1a1a2e" font-size="8" text-anchor="middle">── Feb 18 ──</text>
  <!-- Phase 1: v4.x rapid evolution -->
  <polyline fill="none" stroke="#00f0ff" stroke-width="2" stroke-linejoin="miter" points="
    60,240  87,240
    87,222  96,222
    96,213  109,213
    109,204 115,204
    115,195 121,195
    121,185 123,185
    123,176 131,176
    131,167 139,167
    139,158 140,158
    140,149 144,149
    144,140 149,140
    149,122 155,122
    155,113 159,113
    159,104 162,104
    162,95  168,95
    168,77  240,77
    240,68  357,68
    357,50  400,50
    400,29
  "/>
  <!-- Dashed connector to v5.0 -->
  <line x1="400" y1="29" x2="513" y2="29" stroke="#00f0ff" stroke-width="1" stroke-dasharray="4,4" opacity="0.3"/>
  <!-- Phase 2: v5.x -->
  <polyline fill="none" stroke="#00f0ff" stroke-width="2" stroke-linejoin="miter" points="513,149 541,149 541,140 570,140 570,131"/>
  <!-- Dashed connector to v6.0 -->
  <line x1="570" y1="131" x2="627" y2="131" stroke="#00f0ff" stroke-width="1" stroke-dasharray="4,4" opacity="0.3"/>
  <!-- Phase 3: v6.x -->
  <polyline fill="none" stroke="#00f0ff" stroke-width="2" stroke-linejoin="miter" points="627,76 655,76 655,58 740,58"/>
  <!-- DOTS -->
  <!-- v4.0.0 birth (gold) -->
  <circle cx="60" cy="240" r="5" fill="#ffd700" style="filter:drop-shadow(0 0 4px #ffd700)"/>
  <!-- v4.x minor (cyan) -->
  <circle cx="87" cy="222" r="3" fill="#00f0ff"/>
  <circle cx="96" cy="213" r="3" fill="#00f0ff"/>
  <circle cx="109" cy="204" r="3" fill="#00f0ff"/>
  <circle cx="115" cy="195" r="3" fill="#00f0ff"/>
  <circle cx="121" cy="185" r="3" fill="#00f0ff"/>
  <circle cx="123" cy="176" r="3" fill="#00f0ff"/>
  <circle cx="131" cy="167" r="3" fill="#00f0ff"/>
  <circle cx="139" cy="158" r="3" fill="#00f0ff"/>
  <circle cx="140" cy="149" r="3" fill="#00f0ff"/>
  <circle cx="144" cy="140" r="3" fill="#00f0ff"/>
  <circle cx="149" cy="122" r="3" fill="#00f0ff"/>
  <circle cx="155" cy="113" r="3" fill="#00f0ff"/>
  <circle cx="159" cy="104" r="3" fill="#00f0ff"/>
  <circle cx="162" cy="95" r="3" fill="#00f0ff"/>
  <circle cx="168" cy="77" r="3" fill="#00f0ff"/>
  <circle cx="240" cy="68" r="3" fill="#00f0ff"/>
  <circle cx="357" cy="50" r="3" fill="#00f0ff"/>
  <circle cx="400" cy="29" r="3" fill="#00f0ff"/>
  <!-- v5.0.0 major (magenta) -->
  <circle cx="513" cy="149" r="5" fill="#ff00aa" style="filter:drop-shadow(0 0 4px #ff00aa)"/>
  <circle cx="541" cy="140" r="3" fill="#00f0ff"/>
  <circle cx="570" cy="131" r="3" fill="#00f0ff"/>
  <!-- v6.0.0 major (magenta) -->
  <circle cx="627" cy="76" r="5" fill="#ff00aa" style="filter:drop-shadow(0 0 4px #ff00aa)"/>
  <circle cx="655" cy="58" r="3" fill="#00f0ff"/>
  <circle cx="740" cy="58" r="4" fill="#00f0ff" style="filter:drop-shadow(0 0 5px #00f0ff)"/>
  <!-- Key labels -->
  <text x="60" y="234" fill="#ffd700" font-size="7" text-anchor="middle">v4.0 birth</text>
  <text x="513" y="143" fill="#ff00aa" font-size="7" text-anchor="middle">v5.0</text>
  <text x="627" y="70" fill="#ff00aa" font-size="7" text-anchor="middle">v6.0</text>
  <text x="740" y="52" fill="#00f0ff" font-size="8" text-anchor="middle" font-weight="bold">v6.2</text>
  <!-- Legend -->
  <circle cx="580" y="270" cy="275" r="4" fill="#ffd700"/>
  <text x="588" y="278" fill="#666" font-size="8">Birth</text>
  <circle cx="620" cy="275" r="4" fill="#ff00aa"/>
  <text x="628" y="278" fill="#666" font-size="8">Major</text>
  <circle cx="665" cy="275" r="3" fill="#00f0ff"/>
  <text x="672" y="278" fill="#666" font-size="8">Minor</text>
</svg>